<svg xmlns="http://www.w3.org/2000/svg" viewBox="0 0 245.89 245.89"><defs><style>.cls-1{fill:#84cfee;}</style></defs><title>Middel 1</title><g id="Laag_2" data-name="Laag 2"><g id="Laag_1-2" data-name="Laag 1"><path class="cls-1" d="M140.62,123,242.39,21.18a12,12,0,0,0,0-17l-.71-.71a12,12,0,0,0-17,0L123,105.27,21.18,3.5a12,12,0,0,0-17,0l-.71.71a12,12,0,0,0,0,17L105.27,123,3.5,224.71a12,12,0,0,0,0,17l.71.71a12,12,0,0,0,17,0L123,140.62,224.71,242.39a12,12,0,0,0,17,0l.71-.71a12,12,0,0,0,0-17Z"/></g></g></svg>